<?xml version="1.0" encoding="utf-8"?>
<!-- Generator: Adobe Illustrator 23.0.3, SVG Export Plug-In . SVG Version: 6.00 Build 0)  -->
<svg version="1.1" id="Layer_1" xmlns="http://www.w3.org/2000/svg" xmlns:xlink="http://www.w3.org/1999/xlink" x="0px" y="0px"
	 viewBox="0 0 1280 1280" style="enable-background:new 0 0 1280 1280;" xml:space="preserve">
<style type="text/css">
	.st0{fill:#000083;}
	.st1{fill:url(#SVGID_1_);}
	.st2{fill:url(#path69_1_);}
	.st3{fill:url(#path77_1_);}
	.st4{fill:url(#path968_1_);}
	.st5{fill:#FFFFFF;}
</style>
<g id="g1006" transform="matrix(0.26296827,0,0,0.26296827,-799.54693,61.582129)">
	<g id="g35" transform="matrix(12.509277,0,0,12.509277,438.06846,8.29825)">
		<path id="path33" class="st0" d="M272.38,252.67h10.75v51.74h18.54v10.21h-29.24L272.38,252.67"/>
	</g>
	<g id="g41" transform="matrix(12.509277,0,0,12.509277,438.06846,8.29825)">
		<path id="path39" class="st0" d="M326.57,268.2c5.7-0.07,11.1,2.53,14.6,7.02v-6.1h10.03v45.6h-10.03v-6.1
			c-3.5,4.49-8.9,7.09-14.6,7.02c-12.51,0-22-10.69-22-23.73C304.57,278.86,314.06,268.2,326.57,268.2 M328.39,277.33
			c-8.12,0-13.5,6.39-13.5,14.58c0,8.19,5.47,14.6,13.5,14.6c8.03,0,13.5-6.39,13.5-14.6S336.51,277.33,328.39,277.33"/>
	</g>
	<g id="g47" transform="matrix(12.509277,0,0,12.509277,438.06846,8.29825)">
		<path id="path45" class="st0" d="M359.01,306.8l23.91-28.57h-23.55v-9.11h36.51v8.03l-23.82,28.46h24.36v9.11h-37.41V306.8"/>
	</g>
	<g id="g53" transform="matrix(12.509277,0,0,12.509277,438.06846,8.29825)">
		<path id="path51" class="st0" d="M421.93,268.2c5.7-0.07,11.1,2.53,14.6,7.02v-6.1h10.03v45.6h-10.03v-6.1
			c-3.5,4.49-8.9,7.09-14.6,7.02c-12.51,0-21.98-10.69-21.98-23.73C399.95,278.86,409.42,268.2,421.93,268.2 M423.75,277.33
			c-8.12,0-13.5,6.39-13.5,14.58c0,8.19,5.47,14.6,13.5,14.6c8.03,0,13.5-6.39,13.5-14.6S431.87,277.33,423.75,277.33"/>
	</g>
	<g id="g59" transform="matrix(12.509277,0,0,12.509277,438.06846,8.29825)">
		<path id="path57" class="st0" d="M475.22,268.2c5.69-0.07,11.09,2.52,14.58,7.02v-26.21h10.03v65.71h-10.03v-6.1
			c-3.49,4.49-8.89,7.09-14.58,7.02c-12.51,0-22-10.69-22-23.73C453.22,278.86,462.71,268.2,475.22,268.2 M477.04,277.33
			c-8.12,0-13.5,6.39-13.5,14.58c0,8.19,5.49,14.6,13.5,14.6c8.01,0,13.5-6.39,13.5-14.6S485.16,277.33,477.04,277.33"/>
	</g>
	<g id="g65" transform="matrix(12.509277,0,0,12.509277,438.06846,8.29825)">
		<path id="path63" class="st0" d="M528.48,268.2c5.69-0.07,11.09,2.52,14.58,7.02v-6.1h10.01v45.6h-10.05v-6.1
			c-3.49,4.49-8.89,7.09-14.58,7.02c-12.51,0-22-10.69-22-23.73C506.44,278.86,515.98,268.2,528.48,268.2 M530.31,277.33
			c-8.12,0-13.5,6.39-13.5,14.58c0,8.19,5.49,14.6,13.5,14.6c8.01,0,13.5-6.39,13.5-14.6S538.43,277.33,530.31,277.33"/>
	</g>
</g>
<g>
	<linearGradient id="SVGID_1_" gradientUnits="userSpaceOnUse" x1="640.7719" y1="-354.6576" x2="648.8384" y2="734.3177">
		<stop  offset="0.3379" style="stop-color:#5B8BEB"/>
		<stop  offset="0.7794" style="stop-color:#2742A2"/>
		<stop  offset="1" style="stop-color:#112283"/>
	</linearGradient>
	<rect x="334.86" y="179" class="st1" width="624.35" height="624.35"/>
	<g id="g942" transform="matrix(1.3719271,0,0,1.3719271,169.4857,-38.493576)">
		<g id="g71" transform="matrix(3.3097462,0,0,3.3097462,-688.02908,65.088537)">
			
				<linearGradient id="path69_1_" gradientUnits="userSpaceOnUse" x1="226.0421" y1="188.9162" x2="315.6777" y2="189.6105" gradientTransform="matrix(5.5697 0 0 -5.5697 -1000.8477 1152.5844)">
				<stop  offset="9.999999e-08" style="stop-color:#FFB900"/>
				<stop  offset="0.3376" style="stop-color:#F38000"/>
				<stop  offset="0.5673" style="stop-color:#F83C72"/>
				<stop  offset="0.78" style="stop-color:#FC1CBE"/>
				<stop  offset="0.93" style="stop-color:#FE08ED"/>
				<stop  offset="1" style="stop-color:#FF00FF"/>
			</linearGradient>
			<path id="path69" class="st2" d="M313.36,145.13c-0.79,0.01-1.56-0.2-2.25-0.58c-5.87-3.4-49.35-30.66-51-31.49
				c-1.25-0.58-2.1-1.78-2.25-3.15V71.66c-0.03-1.43,0.67-2.77,1.87-3.55l0.32-0.18c4.21-2.61,18.29-11.2,20.52-12.44
				c0.51-0.3,1.09-0.47,1.69-0.47c0.56,0.01,1.1,0.15,1.6,0.4c0,0,19.71,12.84,22.72,13.99c2.11,0.97,4.42,1.46,6.75,1.42
				c2.64,0.06,5.24-0.58,7.56-1.84c2.95-1.55,21.78-13.5,21.98-13.5c0.47-0.29,1.02-0.43,1.57-0.43c0.59,0,1.18,0.17,1.69,0.47
				c2.56,1.42,20.02,12.1,20.76,12.57c1.23,0.74,1.97,2.08,1.96,3.51v38.24c-0.14,1.37-0.99,2.57-2.25,3.15
				c-1.64,0.9-44.99,28.16-50.97,31.49C314.92,144.9,314.15,145.12,313.36,145.13"/>
		</g>
		<g id="g79" transform="matrix(3.3097462,0,0,3.3097462,-688.02908,65.088537)">
			
				<linearGradient id="path77_1_" gradientUnits="userSpaceOnUse" x1="231.5898" y1="182.4547" x2="322.9771" y2="233.0551" gradientTransform="matrix(5.5697 0 0 -5.5697 -1000.8477 1152.5844)">
				<stop  offset="0" style="stop-color:#EE0A3F"/>
				<stop  offset="1" style="stop-color:#EE0A3F;stop-opacity:0"/>
			</linearGradient>
			<path id="path77" class="st3" d="M313.13,145.13h0.22c0.79,0.01,1.56-0.2,2.25-0.59c5.87-3.4,49.33-30.66,50.97-31.49
				c1.26-0.58,2.11-1.77,2.25-3.15V71.66c0.01-0.65-0.14-1.29-0.43-1.87l-55.27,30.35V145.13"/>
		</g>
		<g id="g970" transform="matrix(-3.2744849,0,0,3.2744849,-467.18522,65.934126)">
			
				<linearGradient id="path968_1_" gradientUnits="userSpaceOnUse" x1="-153.9133" y1="187.4239" x2="-109.2767" y2="223.3811" gradientTransform="matrix(-5.5104 0 0 -5.5104 -1084.7111 1151.8477)">
				<stop  offset="0" style="stop-color:#ED6600"/>
				<stop  offset="1" style="stop-color:#F98200"/>
			</linearGradient>
			<path id="path968" class="st4" d="M-248.87,145.89h0.23c0.79,0.01,1.56-0.2,2.25-0.58c5.87-3.4,49.33-30.66,50.97-31.49
				c1.26-0.58,2.11-1.77,2.25-3.15V72.42c0.01-0.65-0.14-1.29-0.43-1.87l-55.27,30.35V145.89"/>
		</g>
	</g>
	<g>
		<g id="g35_1_" transform="matrix(12.509277,0,0,12.509277,438.06846,8.29825)">
			<path id="path33_1_" class="st5" d="M7,33.95h1.83v8.8h3.15v1.74H7.01L7,33.95"/>
		</g>
		<g id="g41_1_" transform="matrix(12.509277,0,0,12.509277,438.06846,8.29825)">
			<path id="path39_1_" class="st5" d="M16.22,36.59c0.97-0.01,1.89,0.43,2.48,1.19v-1.04h1.71v7.76H18.7v-1.04
				c-0.6,0.76-1.51,1.21-2.48,1.19c-2.13,0-3.74-1.82-3.74-4.04C12.48,38.41,14.09,36.59,16.22,36.59 M16.53,38.15
				c-1.38,0-2.3,1.09-2.3,2.48c0,1.39,0.93,2.48,2.3,2.48c1.37,0,2.3-1.09,2.3-2.48S17.91,38.15,16.53,38.15"/>
		</g>
		<g id="g47_1_" transform="matrix(12.509277,0,0,12.509277,438.06846,8.29825)">
			<path id="path45_1_" class="st5" d="M21.74,43.16l4.07-4.86H21.8v-1.55h6.21v1.37l-4.05,4.84h4.14v1.55h-6.36V43.16"/>
		</g>
	</g>
</g>
</svg>
